<svg xmlns="http://www.w3.org/2000/svg" width="80" height="34"><path fill="#9CA3AF" fill-rule="evenodd" d="M32.84 16.98c-2.39 1.353-4.389 4.178-5.515 6.473-.581.867-.313 2.632 1.343 1.526 1.22-.816 3.625-4.28 5.189-6.857.17-.282.364-.877.296-1.16-.248-.496-1.004-.13-1.313.018m9.729 1.723c-1.68.47-2.897 1.925-3.543 3.43-.34.79-.748 2.092-.269 2.738.198.244.541.102.738-.041.67-.463 1.155-1.18 1.565-1.822.75-1.34 1.41-2.77 1.597-4.325l-.088.02Zm6.576.45c-.873.45-1.37 1.91-1.54 2.719-.21 1.016-.405 2.4.057 3.009a.57.57 0 0 0 .415.173c.694.015 1.177-1.057 1.449-1.672.455-1.024.864-2.642.718-3.676-.055-.533-.565-.769-1.1-.554M31.995 3.036c1.686 1.727 2.196 4.315 1.387 6.538-1.928 4.93-6.93 8.442-12.184 9.853-2.486.562-6.083.837-8.364-.33-2.04-1.125-3.017-3.501-2.62-5.749.637-3.438 3.282-5.937 6.408-7.585 2.604-1.254 5.682-1.816 8.796-1.466.344.055.66.221.748.62.035.285-.01.478-.143.662-.22.269-.475.333-.758.317-3.51-.021-7.116.85-9.687 3.127-1.506 1.429-2.72 3.69-1.558 6.09.745 1.513 3.414 1.975 4.982 1.832 9.12-.843 11.935-6.412 12.47-8.323 1.097-3.927-2.751-7.27-10.144-6.242C11.76 3.71 5.81 10.203 4.594 16.857c-1.278 6.99 5.456 9.955 12.473 8.48 2.86-.6 5.872-1.96 8.813-4.757 2.424-2.544 5.742-6.246 9.5-5.674.463.105 1.027.34 1.16.852.221.908-.245 1.718-.54 2.524-2.99 5.097-2.683 7.164-2.15 7.428 1.098.348 1.806-1.217 2.343-2.094.714-3.297 3.315-6.423 6.672-7.372.102-.396.112-.798.102-1.21-.052-1.765-.881-2.988-1.409-4.43-.124-.38.005-.846.3-1.131.235-.243.742-.51 1.153-.4.4.069.676.392.89.675.763 1.173 1.606 1.85 3.203 1.85 1.192.04 2.402-.041 3.357-.67.601-.688 1.289-1.431 2.187-1.674.435-.087.782.004 1.08.27a1 1 0 0 1 .198 1.084c-.275.707-1.258 1.39-1.955 2.129-1.143 1.216-1.98 2.698-2.564 4.276.36-.111.86-.23 1.323-.142 1.329.251 1.75 1.526 1.826 2.74.024.381.013.789-.044 1.183.762-.12 1.247-.404 1.818-.697.976-.547 1.786-1.353 2.569-2.118.346-.32.87-.435 1.264-.289.31.092.565.367.62.707.137.919-.684 1.207-1.861 2.992-.657 1-1.404 2.037-1.53 3.26-.017.221.037.43.183.592.27.224.714.106 1.004-.06.604-.337 1.088-.878 1.444-1.435.52-1.895 1.266-3.696 2.785-5.013.384-.289.85-.563 1.354-.451.271.047.492.241.547.458.302.905-.32 2.085-.752 2.843-.553.976-1.448 1.914-2.213 2.774-.02.452.082.742.432.83.534.07.956-.327 1.37-.66 1.157-1.077 2.25-2.34 2.935-3.784-.112-1.302.333-2.798 1.496-3.484.395-.198.853-.178 1.17.037.322.247.333.718.271 1.118-.09.47-.356.84-.59 1.248.645.041 1.212-.262 1.809-.411a.727.727 0 0 1 .665.16c.31.291.34.672.184 1.05-.327.694-.769 1.068-1.237 1.72-.646.901-1.235 2.112-1.256 3.02.004.213.093.36.239.421.347.123.646-.135.934-.31 2-1.512 3.53-3.67 5.19-5.466.434-.405.932-.823 1.544-.63a.673.673 0 0 1 .438.476c.092.436-.163.98-.436 1.344-.828 1.264-1.938 2.702-1.981 4.195.007.262.088.35.207.388.483.14 1.06-.353 1.493-.754 1.455-1.337 2.427-3.037 3.526-4.604.215-.338.543-.616.942-.66.278-.017.51.058.69.245.48.677.078 1.686-.259 2.335-1.48 2.791-3.042 5.614-4.6 8.462-.786 1.372-1.217 2.143-1.265 3.21-.045.123-.156.184-.323.123-.884-.327-1.235-.873-1.242-1.53-.006-.58.51-1.404.705-1.788.764-1.507 1.801-3.098 2.523-4.604-.103.082-.29.272-.453.405-.962.785-1.874 1.791-3.165 1.614-.421-.074-.796-.503-.911-.93-.208-.725-.075-1.762.143-2.503l-.08.078c-1.1 1.172-2.287 2.479-3.773 3.21-.456.207-1.245.356-1.704-.059-.87-.897-.66-2.492-.183-3.66.38-.96.907-1.858 1.48-2.704-.423.13-.8.19-1.225.193l-.143.208c-1.35 2.02-2.626 4.294-4.618 5.692-.68.478-1.582.517-2.146.157-.476-.307-.67-.864-.806-1.379-1 .759-2.738 2.088-3.944 1.497-.725-.387-1.037-1.207-1.003-2.037.027-1.197.554-2.434 1.034-3.508-.184.087-.283.125-.473.211-.462.207-.935.353-1.405.53-.346.975-1.078 2.345-1.482 2.893-.596.915-1.781 2.067-2.856 2.102-.85.058-1.598-.337-2.003-1.044-.963-1.561-.514-3.693-.13-5.53.692-2.753 1.792-5.313 3.092-7.72-.42.054-.748.077-1.167.102-.748.048-1.32.118-2.129-.041.059 4.4-1.098 8.936-3.985 12.407-.818.982-2.135 2.016-3.573 1.79-.912-.134-1.581-1.062-1.71-1.902-.643 1.104-1.872 2.433-3.646 1.458-1.051-.58-1.068-1.101-1.142-2.257 0 0-2.22 3.366-5.139 2.576-1.315-.367-2.444-1.676-1.747-3.76-3.625 2.795-7.702 4.613-11.324 4.676-5 .088-9.411-1.952-11.554-5.362-2.942-4.682-1.078-11.25 2.69-15.41 3.764-4.161 8.038-5.889 10.812-6.796 7.7-2.516 14.306-.884 17.043 1.785"/></svg>