<svg xmlns="http://www.w3.org/2000/svg" width="40" height="40"><path fill="#9CA3AF" fill-rule="nonzero" d="M0 20c0-2.917.583-5.667 1.75-8.167L11.25 38C4.583 34.75 0 27.917 0 20Zm33.5-1c0 1.667-.667 3.667-1.5 6.417l-2 6.666-7.083-21.416c1.166 0 2.25-.167 2.25-.167 1-.167.916-1.75-.167-1.667 0 0-3.25.25-5.333.25-1.917 0-5.25-.25-5.25-.25-1.084-.083-1.25 1.584-.167 1.667 0 0 1 .083 2.083.167l3.084 8.5L15 32.25 7.75 10.583c1.167 0 2.25-.166 2.25-.166 1-.167.917-1.75-.167-1.667 0 0-3.25.25-5.333.25H3.25C6.833 3.583 13 0 20 0c5.167 0 9.917 2 13.417 5.25h-.25c-1.917 0-3.334 1.75-3.334 3.583 0 1.584 1 3 2 4.667.75 1.333 1.667 3 1.667 5.5Zm-13.167 2.75L26.5 38.583c.083.084.083.167.167.25A19.672 19.672 0 0 1 20 40c-2 0-3.833-.333-5.667-.833l6-17.417Zm17.25-11.333C39.083 13.25 40 16.5 40 20c0 7.417-4 13.833-9.833 17.333l6.083-17.666c1.083-2.834 1.5-5.167 1.5-7.167 0-.75-.083-1.417-.167-2.083Z"/></svg>