<svg xmlns="http://www.w3.org/2000/svg" width="33" height="44"><path fill="#9CA3AF" fill-rule="nonzero" d="M.84 21.194c.367-.551.826-.827 1.47-.735.367 0 .642.092 7.624 3.031l2.02.827c.735.276 1.103 1.01 1.103 1.929-.092.919-.551 1.562-1.286 1.745l-2.848.919c-6.522 2.204-6.705 2.204-7.073 2.204-.551-.091-1.01-.367-1.286-.918-.275-.368-.367-1.01-.46-1.837-.275-2.389 0-6.063.736-7.165Zm15.616 21.862c-.184.551-.644.827-1.195.919-1.745.275-7.165-1.746-8.267-3.124-.184-.275-.367-.643-.367-.918 0-.184 0-.46.092-.643.183-.276.367-.551 5.235-6.43l1.378-1.746c.46-.55 1.286-.734 2.113-.459.735.276 1.194 1.01 1.194 1.745v3.124c-.092 6.98-.092 7.165-.183 7.532Zm10.93-2.388c-.55.183-1.102.183-1.653-.092-.275-.276-.551-.735-4.409-7.073l-1.102-1.93a1.934 1.934 0 0 1 .183-2.296c.552-.643 1.378-.918 2.021-.643 0 .092 2.848 1.01 2.848 1.01 6.522 2.205 6.705 2.297 6.981 2.48.46.276.643.828.551 1.47-.184 1.746-3.766 6.43-5.42 7.074ZM24.08 24.225c-1.194.276-1.837.46-2.113.551v-.092c-.735.184-1.562-.183-2.02-.918-.46-.735-.46-1.562 0-2.113.091 0 1.836-2.48 1.836-2.48 3.95-5.512 4.134-5.787 4.41-5.97.459-.368 1.01-.368 1.561-.093 1.562.827 4.685 5.604 4.868 7.44v.093c0 .643-.183 1.194-.643 1.47-.275.183-.55.275-7.9 2.112ZM16.73 17.98c.092 2.572-1.01 2.94-1.286 3.031-.367.092-1.47.46-2.756-1.745 0 0-8.91-14.238-9.094-14.697-.183-.552 0-1.103.46-1.562 1.378-1.378 8.542-3.399 10.38-2.94.643.184 1.01.552 1.194 1.103.092.643.918 13.87 1.102 16.81Z"/></svg>