<svg xmlns="http://www.w3.org/2000/svg" width="86" height="13"><path fill="#9CA3AF" fill-rule="nonzero" d="M1.561 12.999H.353c-.101 0-.353 0-.353-.147 0-.098.05-.148.202-.197 1.107-.343 1.359-.932 1.359-1.765V2.11c0-.785-.252-1.374-1.36-1.766C.052.344 0 .245 0 .196 0 0 .252.05.353.05h9.97c2.265 0 4.128 1.766 4.128 3.973s-1.863 3.973-4.129 3.973H5.287v2.992c.05.785.302 1.324 1.36 1.667.15.05.2.1.2.197 0 .147-.25.147-.352.147H1.561V13ZM75.88 8.241h2.366L75.88 4.317l-.253-.393-2.114 4.317h2.367Zm0-8.24h1.61l6.747 11.577c.202.293.454.588.756.734.252.197.554.246.805.344.102.05.202.099.202.196 0 .148-.252.148-.353.148h-5.991c-.1 0-.403 0-.403-.148 0-.097.1-.147.202-.196.302-.098.503-.245.603-.54.101-.343 0-.538-.252-.98a81.078 81.078 0 0 0-1.057-2.11h-5.64l-.049.098c-.05.196-.453.883-.756 1.619-.402.784-.553.98-.453 1.373.05.294.302.442.604.54.101.049.152.098.152.196 0 .147-.253.147-.353.147h-2.77c-.1 0-.352 0-.352-.147 0-.098.05-.148.201-.197.253-.097.554-.147.806-.343.302-.147.554-.442.755-.735l.352-.736 3.827-7.8-.554-.931c-.503-.785-1.007-1.276-1.56-1.57-.252-.147-.504-.147-.756-.245-.151-.05-.201-.099-.151-.197 0-.098.1-.049.151-.098h3.677v.001ZM60.824 12.949h.202c9.265 0 9.164-12.9 0-12.9h-7.603c-.151 0-.402-.049-.402.148 0 .049.1.147.2.147 1.108.343 1.36.932 1.41 1.668v8.976c-.05.785-.302 1.324-1.41 1.668-.1.05-.2.099-.2.196 0 .148.251.148.402.148h4.884v-.05h2.517Zm0-11.967c1.41 0 2.57 1.128 2.57 2.5v5.985c0 1.374-1.16 2.502-2.57 2.502h-2.518V.982h2.518Zm-19.183 7.26h2.366l-2.366-3.925-.252-.393-2.114 4.317h2.366Zm0-8.241h1.661l6.747 11.577c.152.293.404.588.706.734.251.197.554.246.856.344.1.05.2.099.2.196 0 .148-.301.148-.402.148h-5.99c-.102 0-.354 0-.354-.148 0-.097.05-.147.201-.196.253-.098.504-.245.555-.54.1-.343 0-.538-.202-.98-.353-.736-.755-1.423-1.107-2.11h-5.641l-.05.098c-.05.196-.403.883-.755 1.619-.353.784-.554.98-.453 1.373.1.294.302.442.604.54.1.049.201.098.201.196 0 .147-.251.147-.402.147h-2.72c-.1 0-.403 0-.403-.147 0-.098.101-.148.202-.197.302-.097.554-.147.856-.343.252-.147.554-.442.705-.735l.352-.736 3.878-7.8-.554-.931C39.828 1.325 39.274.834 38.77.54c-.303-.147-.504-.147-.806-.245-.101-.05-.202-.099-.151-.197.05-.098.15-.049.202-.098h3.625v.001ZM25.025 8.585c1.158.392 2.568.49 3.675.147l4.381 3.679.352.294c.051.05.051.098.051.147 0 .148-.252.148-.352.148h-4.633l-3.474-2.796-2.82-2.208v3.042c.051.735.353 1.275 1.41 1.618.1.05.151.099.151.197 0 .147-.252.147-.353.147h-6.092c-.151 0-.403 0-.403-.147 0-.098.1-.148.201-.197 1.209-.392 1.36-.98 1.41-1.912V2.257c-.05-.883-.202-1.521-1.41-1.913-.1 0-.201-.099-.201-.148 0-.196.252-.147.403-.147h9.818a4.117 4.117 0 0 1 2.889 1.159 3.905 3.905 0 0 1 1.19 2.814 3.905 3.905 0 0 1-1.19 2.814 4.117 4.117 0 0 1-2.889 1.159h-3.172c.151.294.504.392.806.54.1 0 .15.05.252.05Zm0-1.52h.402c1.31 0 2.417-1.375 2.417-3.14 0-1.717-1.108-3.09-2.417-3.09h-3.222v6.23h2.82ZM8.157.834h-2.87v6.23H8.61c1.36 0 2.417-1.374 2.417-3.14 0-1.717-1.057-3.09-2.417-3.09h-.453Z"/></svg>