<svg xmlns="http://www.w3.org/2000/svg" width="62" height="46"><path fill="#9CA3AF" fill-rule="nonzero" d="M52.829 26.414a12.643 12.643 0 0 0-5.562 1.295c-.576-1.139-1.151-2.134-1.247-2.877-.108-.863-.24-1.39-.108-2.421s.731-2.493.731-2.613c-.012-.108-.132-.636-1.366-.648-1.235-.012-2.302.24-2.422.564-.12.323-.36 1.067-.515 1.834-.216 1.127-2.47 5.118-3.752 7.216-.42-.815-.78-1.534-.851-2.11-.108-.863-.24-1.39-.108-2.421s.731-2.493.731-2.613c-.012-.108-.132-.636-1.366-.648-1.235-.012-2.302.24-2.421.564-.12.323-.252 1.09-.516 1.834-.252.743-3.249 7.408-4.028 9.146a37.02 37.02 0 0 1-.995 2.074c-.251.48-.012.036-.036.084l-.335.635v.012c-.168.3-.348.587-.432.587-.06 0-.18-.803.024-1.906.444-2.313 1.522-5.921 1.51-6.053 0-.06.204-.695-.695-1.019-.875-.324-1.186.216-1.258.216-.072 0-.132.192-.132.192s.97-4.064-1.858-4.064c-1.774 0-4.22 1.93-5.43 3.692-.768.42-2.398 1.307-4.124 2.254-.66.36-1.342.743-1.99 1.09l-.131-.144c-3.429-3.656-9.77-6.245-9.506-11.16.096-1.786.72-6.496 12.179-12.202 9.386-4.675 16.901-3.393 18.208-.54 1.858 4.076-4.016 11.652-13.773 12.743-3.716.42-5.67-1.02-6.161-1.559-.516-.563-.588-.587-.78-.48-.311.169-.12.672 0 .972.288.755 1.487 2.097 3.525 2.769 1.786.587 6.149.91 11.423-1.127 5.91-2.29 10.525-8.643 9.17-13.953-1.378-5.406-10.344-7.18-18.82-4.171C14.567 3.256 9.1 6.06 5.169 9.74.493 14.104-.25 17.916.062 19.498c1.09 5.646 8.87 9.326 11.987 12.047-.156.084-.3.168-.432.24-1.558.767-7.492 3.871-8.978 7.156-1.678 3.716.264 6.389 1.558 6.749 4.004 1.114 8.104-.887 10.321-4.184 2.206-3.296 1.942-7.576.923-9.53l-.036-.071 1.223-.72c.791-.467 1.57-.899 2.253-1.27-.383 1.042-.659 2.277-.803 4.075-.168 2.11.696 4.843 1.834 5.922.504.467 1.103.48 1.475.48 1.318 0 1.918-1.092 2.577-2.398.815-1.594 1.534-3.44 1.534-3.44s-.899 4.998 1.559 4.998c.899 0 1.798-1.163 2.205-1.762v.012s.024-.036.072-.12c.05-.074.098-.15.144-.227v-.024c.36-.624 1.163-2.05 2.361-4.412 1.547-3.044 3.033-6.856 3.033-6.856s.144.935.587 2.47c.264.91.84 1.905 1.283 2.876-.36.503-.575.791-.575.791l.012.012a34.04 34.04 0 0 1-.947 1.199c-1.223 1.462-2.685 3.129-2.877 3.608-.228.563-.18.983.264 1.319.323.24.899.287 1.51.24 1.103-.073 1.87-.348 2.253-.516.6-.216 1.283-.54 1.942-1.019 1.199-.887 1.93-2.146 1.858-3.824-.036-.923-.335-1.834-.707-2.697.108-.156.216-.312.324-.48 1.894-2.768 3.356-5.813 3.356-5.813s.144.935.587 2.47c.228.778.684 1.63 1.091 2.469-1.774 1.45-2.889 3.128-3.272 4.231-.707 2.038-.156 2.961.887 3.177.467.096 1.139-.12 1.642-.336a7.441 7.441 0 0 0 2.074-1.067c1.199-.887 2.35-2.121 2.29-3.788-.037-.767-.24-1.522-.516-2.241 1.51-.624 3.464-.983 5.945-.683 5.335.623 6.39 3.955 6.186 5.346-.204 1.39-1.319 2.157-1.69 2.397-.372.228-.492.312-.456.48.048.251.216.24.54.192.443-.073 2.804-1.14 2.9-3.704.144-3.297-2.984-6.893-8.534-6.858Zm-41.14 13.87c-1.762 1.93-4.243 2.66-5.298 2.037-1.139-.659-.695-3.5 1.474-5.55 1.319-1.246 3.033-2.397 4.16-3.104.252-.156.635-.384 1.09-.66.073-.047.12-.072.12-.072.084-.048.18-.107.276-.167.803 2.924.036 5.49-1.822 7.515Zm12.886-8.763c-.611 1.498-1.906 5.346-2.685 5.13-.671-.18-1.079-3.092-.132-5.97.48-1.45 1.499-3.176 2.098-3.847.971-1.079 2.026-1.439 2.29-.995.311.575-1.187 4.747-1.57 5.682Zm10.633 5.082c-.264.132-.504.228-.612.156-.084-.048.108-.227.108-.227s1.33-1.427 1.858-2.086c.3-.384.66-.827 1.043-1.33v.143c0 1.726-1.654 2.877-2.397 3.344Zm8.199-1.87c-.192-.143-.168-.587.48-1.977.251-.552.826-1.475 1.821-2.35.12.36.192.707.18 1.031-.012 2.158-1.546 2.96-2.481 3.296Z"/></svg>