<svg xmlns="http://www.w3.org/2000/svg" width="74" height="21"><path fill="#9CA3AF" fill-rule="nonzero" d="M10.522 15.949c-.71-1.395-1.54-2.804-3.162-2.804-.31 0-.62.051-.904.18l-.55-1.102c.67-.576 1.755-1.032 3.15-1.032 2.169 0 3.282 1.045 4.166 2.378.525-1.138.774-2.676.774-4.582 0-4.76-1.488-7.205-4.966-7.205-3.426 0-4.907 2.445-4.907 7.205 0 4.735 1.48 7.154 4.907 7.154.545 0 1.038-.06 1.492-.192Zm.849 1.66c-.763.206-1.55.311-2.34.313C4.466 17.922 0 14.282 0 8.987 0 3.642 4.467 0 9.03 0c4.64 0 9.064 3.615 9.064 8.987 0 2.987-1.394 5.415-3.42 6.984.655.981 1.328 1.633 2.267 1.633 1.024 0 1.437-.792 1.506-1.412h1.334c.078.826-.335 4.261-4.063 4.261-2.258 0-3.452-1.308-4.347-2.843Zm9.657-4.541V6.947c0-.697-.258-1.007-1.059-1.007h-.852V4.313h5.57v8.677c0 1.463.791 2.108 1.997 2.108.99 0 1.979-.437 2.513-1.437V6.947c0-.697-.258-1.007-1.059-1.007h-.903V4.313h5.62v9.09c0 .905.336 1.317 1.37 1.317h.18V16.4l-5.027.8v-1.73h-.104c-.972 1.187-2.34 1.989-4.295 1.989-2.195 0-3.951-1.11-3.951-4.39m20.69 2.763c1.98 0 2.733-1.723 2.773-5.19.038-3.394-.792-5.036-2.772-5.036-1.73 0-2.815 1.643-2.815 5.035 0 3.47 1.067 5.191 2.815 5.191Zm0 1.627c-3.58 0-6.809-2.738-6.809-6.818 0-4.003 3.151-6.663 6.81-6.663 3.813 0 6.87 2.711 6.87 6.663 0 4.08-3.057 6.818-6.87 6.818Zm6.984-.259v-1.627h.543c1.343 0 1.472-.387 1.472-1.549V6.947c0-.697-.362-1.007-1.188-1.007h-.723V4.313h5.104l.258 2.66h.104c.568-1.911 2.092-2.919 3.52-2.919 1.18 0 2.1.672 2.1 2.033 0 .946-.455 1.954-1.73 1.954-1.145 0-1.368-.775-2.315-.775-.843 0-1.498.8-1.498 1.98v4.777c0 1.162.284 1.55 1.602 1.55h.748v1.626h-7.997Zm16.993-1.893c1.627 0 2.298-1.541 2.298-3.09V10.15c-1.187 1.23-3.951 1.274-3.951 3.47 0 1.075.637 1.687 1.653 1.687Zm2.376-.01c-.672 1.292-2.05 2.162-3.977 2.162-2.238 0-3.684-1.19-3.684-3.28 0-4.209 5.862-3.09 7.583-5.879v-.302c0-2.143-.844-2.478-1.773-2.478-2.608 0-1.42 2.804-3.822 2.804-1.154 0-1.601-.696-1.601-1.479 0-1.584 1.894-2.867 5.45-2.867 3.364 0 5.43.93 5.43 4.279V13.6c0 .826.302 1.275 1.025 1.275.31 0 .568-.087.766-.224l.43 1.049c-.353.543-1.291 1.498-3.073 1.498-1.55 0-2.522-.723-2.651-1.902h-.103Z"/></svg>