<svg xmlns="http://www.w3.org/2000/svg" width="40" height="40"><path fill="#9CA3AF" fill-rule="nonzero" d="M20 0C8.917 0 0 8.935 0 20.042c0 8.517 5.25 15.783 12.75 18.622-.167-1.587-.333-4.008.083-5.762.334-1.587 2.334-9.937 2.334-9.937s-.584-1.17-.584-3.007c0-2.755 1.584-4.843 3.584-4.843 1.666 0 2.5 1.252 2.5 2.84 0 1.753-1.084 4.258-1.667 6.68-.5 2.004 1 3.59 3 3.59 3.583 0 6.25-3.757 6.25-9.185 0-4.76-3.417-8.184-8.333-8.184-5.667 0-9 4.259-9 8.685 0 1.753.666 3.59 1.5 4.593.166.167.166.334.166.584-.166.668-.5 2.004-.583 2.255-.083.334-.25.417-.667.25-2.5-1.169-4.083-4.843-4.083-7.766 0-6.346 4.583-12.108 13.25-12.108 6.917 0 12.333 4.927 12.333 11.607 0 6.931-4.333 12.443-10.416 12.443-2 0-3.917-1.086-4.584-2.338 0 0-1 3.84-1.25 4.76-.416 1.753-1.666 3.924-2.5 5.26 1.834.585 3.834.919 5.917.919 11.083 0 20-8.935 20-20.042C40 8.935 31.083 0 20 0Z"/></svg>